<svg version="1.1" id="Layer_1" xmlns="http://www.w3.org/2000/svg" xmlns:xlink="http://www.w3.org/1999/xlink" x="0px" y="0px"
	 width="100%" viewBox="0 0 500 500" enable-background="new 0 0 500 500" xml:space="preserve">
<path fill="#FFFFFF" opacity="1.000000" stroke="none" 
	d="
M501.000000,178.000000 
	C501.000000,285.999969 501.000000,393.499939 501.000000,500.999939 
	C334.333405,500.999939 167.666794,500.999939 1.000147,500.999969 
	C1.000098,334.333435 1.000098,167.666870 1.000049,1.000237 
	C167.666519,1.000158 334.333038,1.000158 500.999786,1.000079 
	C501.000000,59.833332 501.000000,118.666664 501.000000,178.000000 
M47.462452,269.087769 
	C52.618980,281.686279 57.122913,294.601257 63.050484,306.825897 
	C83.451088,348.898865 110.536636,386.119568 145.141312,417.764435 
	C173.799561,443.971527 205.951431,465.297607 238.938156,485.481873 
	C247.457306,490.694641 256.002411,490.379120 264.328583,484.982178 
	C278.572723,475.749268 292.933258,466.683594 306.955536,457.123230 
	C339.458405,434.962799 369.228943,409.671753 393.769165,378.715057 
	C423.081024,341.739044 446.746063,301.672852 458.384064,255.460846 
	C472.212708,200.550491 473.148102,144.748154 468.597076,88.698906 
	C467.508789,75.295456 458.642181,68.380554 445.153442,67.714333 
	C427.535583,66.844185 409.872864,66.024681 392.361145,64.028229 
	C346.065277,58.750195 302.697327,44.980621 264.124542,17.949326 
	C255.767365,12.092730 246.855042,12.006389 238.464188,17.880266 
	C204.241714,41.837132 166.058151,55.889828 125.037193,61.793324 
	C102.353302,65.057861 79.333244,66.088333 56.436440,67.731865 
	C43.542156,68.657417 34.914886,76.026627 33.930119,88.561287 
	C32.978245,100.677277 32.201286,112.817764 31.776178,124.962502 
	C30.078039,173.475800 33.516655,221.458984 47.462452,269.087769 
z"/>
<path fill="#ED0D7C" opacity="1.000000" stroke="none" 
	d="
M47.328403,268.708435 
	C33.516655,221.458984 30.078039,173.475800 31.776178,124.962502 
	C32.201286,112.817764 32.978245,100.677277 33.930119,88.561287 
	C34.914886,76.026627 43.542156,68.657417 56.436440,67.731865 
	C79.333244,66.088333 102.353302,65.057861 125.037193,61.793324 
	C166.058151,55.889828 204.241714,41.837132 238.464188,17.880266 
	C246.855042,12.006389 255.767365,12.092730 264.124542,17.949326 
	C302.697327,44.980621 346.065277,58.750195 392.361145,64.028229 
	C409.872864,66.024681 427.535583,66.844185 445.153442,67.714333 
	C458.642181,68.380554 467.508789,75.295456 468.597076,88.698906 
	C473.148102,144.748154 472.212708,200.550491 458.384064,255.460846 
	C446.746063,301.672852 423.081024,341.739044 393.769165,378.715057 
	C369.228943,409.671753 339.458405,434.962799 306.955536,457.123230 
	C292.933258,466.683594 278.572723,475.749268 264.328583,484.982178 
	C256.002411,490.379120 247.457306,490.694641 238.938156,485.481873 
	C205.951431,465.297607 173.799561,443.971527 145.141312,417.764435 
	C110.536636,386.119568 83.451088,348.898865 63.050484,306.825897 
	C57.122913,294.601257 52.618980,281.686279 47.328403,268.708435 
M144.096359,402.410736 
	C149.747314,407.586334 155.300613,412.873566 161.065994,417.918365 
	C186.863235,440.491425 215.709961,458.766144 244.587372,476.993164 
	C249.581726,480.145569 254.253586,479.450043 259.011230,476.296356 
	C272.471252,467.374207 286.154236,458.782715 299.497986,449.692017 
	C335.670044,425.049042 368.323242,396.583160 394.334656,361.054932 
	C415.687897,331.889130 433.707001,300.913635 444.626343,266.237091 
	C454.190155,235.865250 458.821594,204.542679 459.718658,172.852097 
	C460.453094,146.904892 459.456268,120.896828 458.794373,94.926773 
	C458.441437,81.077888 454.858429,78.811157 441.210938,77.806282 
	C417.332031,76.048050 393.355743,74.409096 369.725433,70.749634 
	C330.644867,64.697502 294.205505,51.002563 261.404236,28.411110 
	C252.526581,22.296747 249.838547,22.384930 240.726791,28.625282 
	C215.744675,45.734722 188.390121,57.542828 159.160095,65.145050 
	C125.779297,73.826820 91.771263,77.583199 57.342213,78.013680 
	C49.147633,78.116142 44.416264,82.117363 44.083138,89.802330 
	C43.181499,110.602463 41.922440,131.413269 41.913727,152.220306 
	C41.897484,191.008240 45.340885,229.578583 57.686333,266.545166 
	C75.077629,318.620758 104.787560,363.241669 144.096359,402.410736 
z"/>
<path fill="#FFFEFE" opacity="1.000000" stroke="none" 
	d="
M143.840302,402.164642 
	C104.787560,363.241669 75.077629,318.620758 57.686333,266.545166 
	C45.340885,229.578583 41.897484,191.008240 41.913727,152.220306 
	C41.922440,131.413269 43.181499,110.602463 44.083138,89.802330 
	C44.416264,82.117363 49.147633,78.116142 57.342213,78.013680 
	C91.771263,77.583199 125.779297,73.826820 159.160095,65.145050 
	C188.390121,57.542828 215.744675,45.734722 240.726791,28.625282 
	C249.838547,22.384930 252.526581,22.296747 261.404236,28.411110 
	C294.205505,51.002563 330.644867,64.697502 369.725433,70.749634 
	C393.355743,74.409096 417.332031,76.048050 441.210938,77.806282 
	C454.858429,78.811157 458.441437,81.077888 458.794373,94.926773 
	C459.456268,120.896828 460.453094,146.904892 459.718658,172.852097 
	C458.821594,204.542679 454.190155,235.865250 444.626343,266.237091 
	C433.707001,300.913635 415.687897,331.889130 394.334656,361.054932 
	C368.323242,396.583160 335.670044,425.049042 299.497986,449.692017 
	C286.154236,458.782715 272.471252,467.374207 259.011230,476.296356 
	C254.253586,479.450043 249.581726,480.145569 244.587372,476.993164 
	C215.709961,458.766144 186.863235,440.491425 161.065994,417.918365 
	C155.300613,412.873566 149.747314,407.586334 143.840302,402.164642 
M265.134827,424.629883 
	C283.854248,411.351257 303.433502,399.118439 321.116821,384.579620 
	C359.727905,352.834412 388.125854,313.252747 403.733032,265.576996 
	C418.318817,221.021408 418.874084,174.865952 415.401611,128.591522 
	C414.599945,117.908905 409.733337,114.047920 398.825897,113.312843 
	C385.045959,112.384178 371.223969,111.664978 357.528778,109.974854 
	C322.397461,105.639305 289.359039,95.201691 259.948822,74.824463 
	C254.088760,70.764267 248.211487,70.843437 242.317184,74.921196 
	C216.820496,92.560158 188.438858,103.165604 158.002014,107.833153 
	C139.945435,110.602173 121.626579,111.721802 103.401848,113.309967 
	C92.953033,114.220528 87.716492,118.594002 86.989143,127.739838 
	C84.925079,153.693787 84.986588,179.607895 86.761658,205.613144 
	C89.857224,250.964142 105.019371,291.722198 130.480042,329.169220 
	C159.879974,372.410065 200.302124,402.814697 244.427582,429.115509 
	C249.135956,431.921906 253.982407,431.588745 258.644135,428.801208 
	C260.641754,427.606689 262.555115,426.271179 265.134827,424.629883 
z"/>
<path fill="#800180" opacity="1.000000" stroke="none" 
	d="
M264.820801,424.814819 
	C262.555115,426.271179 260.641754,427.606689 258.644135,428.801208 
	C253.982407,431.588745 249.135956,431.921906 244.427582,429.115509 
	C200.302124,402.814697 159.879974,372.410065 130.480042,329.169220 
	C105.019371,291.722198 89.857224,250.964142 86.761658,205.613144 
	C84.986588,179.607895 84.925079,153.693787 86.989143,127.739838 
	C87.716492,118.594002 92.953033,114.220528 103.401848,113.309967 
	C121.626579,111.721802 139.945435,110.602173 158.002014,107.833153 
	C188.438858,103.165604 216.820496,92.560158 242.317184,74.921196 
	C248.211487,70.843437 254.088760,70.764267 259.948822,74.824463 
	C289.359039,95.201691 322.397461,105.639305 357.528778,109.974854 
	C371.223969,111.664978 385.045959,112.384178 398.825897,113.312843 
	C409.733337,114.047920 414.599945,117.908905 415.401611,128.591522 
	C418.874084,174.865952 418.318817,221.021408 403.733032,265.576996 
	C388.125854,313.252747 359.727905,352.834412 321.116821,384.579620 
	C303.433502,399.118439 283.854248,411.351257 264.820801,424.814819 
M164.718903,241.499924 
	C164.719238,249.328476 164.692856,257.157166 164.728394,264.985565 
	C164.756729,271.228271 165.498367,271.982666 171.588470,271.993317 
	C184.080643,272.015198 196.572891,271.995697 209.065109,272.001648 
	C216.242294,272.005035 216.948288,272.728302 216.953354,280.114899 
	C216.961792,292.440552 216.943146,304.766235 216.961594,317.091858 
	C216.971344,323.606506 217.526596,324.148621 224.225098,324.154663 
	C241.047943,324.169861 257.870850,324.172546 274.693665,324.151794 
	C280.638580,324.144440 281.716431,323.113861 281.736694,317.238159 
	C281.780396,304.579529 281.734375,291.920624 281.756287,279.261871 
	C281.767761,272.640503 282.389038,272.012970 288.850433,272.004791 
	C301.675781,271.988495 314.501160,272.016479 327.326477,271.992340 
	C332.962708,271.981720 333.955566,270.984283 333.964294,265.237793 
	C333.990112,248.248413 333.996857,231.258911 333.959808,214.269577 
	C333.947632,208.678101 332.833069,207.578476 327.174591,207.557709 
	C314.849121,207.512512 302.523315,207.553360 290.197662,207.539322 
	C282.601257,207.530655 281.760345,206.714844 281.752930,199.368896 
	C281.740326,186.876694 281.697388,174.384140 281.774750,161.892410 
	C281.802399,157.427231 280.179871,155.088455 275.340424,155.120880 
	C258.018677,155.236954 240.695267,155.228226 223.373352,155.123642 
	C218.693542,155.095398 216.829422,156.995453 216.897202,161.719391 
	C217.078812,174.375565 216.968307,187.036087 216.954132,199.694855 
	C216.946686,206.340729 215.789139,207.517532 209.096085,207.533585 
	C196.437363,207.563965 183.777298,207.645020 171.120392,207.491425 
	C166.414032,207.434326 164.538452,209.271896 164.657349,214.017990 
	C164.878387,222.840271 164.719666,231.672073 164.718903,241.499924 
z"/>
<path fill="#FFFEFF" opacity="1.000000" stroke="none" 
	d="
M164.718964,240.999908 
	C164.719666,231.672073 164.878387,222.840271 164.657349,214.017990 
	C164.538452,209.271896 166.414032,207.434326 171.120392,207.491425 
	C183.777298,207.645020 196.437363,207.563965 209.096085,207.533585 
	C215.789139,207.517532 216.946686,206.340729 216.954132,199.694855 
	C216.968307,187.036087 217.078812,174.375565 216.897202,161.719391 
	C216.829422,156.995453 218.693542,155.095398 223.373352,155.123642 
	C240.695267,155.228226 258.018677,155.236954 275.340424,155.120880 
	C280.179871,155.088455 281.802399,157.427231 281.774750,161.892410 
	C281.697388,174.384140 281.740326,186.876694 281.752930,199.368896 
	C281.760345,206.714844 282.601257,207.530655 290.197662,207.539322 
	C302.523315,207.553360 314.849121,207.512512 327.174591,207.557709 
	C332.833069,207.578476 333.947632,208.678101 333.959808,214.269577 
	C333.996857,231.258911 333.990112,248.248413 333.964294,265.237793 
	C333.955566,270.984283 332.962708,271.981720 327.326477,271.992340 
	C314.501160,272.016479 301.675781,271.988495 288.850433,272.004791 
	C282.389038,272.012970 281.767761,272.640503 281.756287,279.261871 
	C281.734375,291.920624 281.780396,304.579529 281.736694,317.238159 
	C281.716431,323.113861 280.638580,324.144440 274.693665,324.151794 
	C257.870850,324.172546 241.047943,324.169861 224.225098,324.154663 
	C217.526596,324.148621 216.971344,323.606506 216.961594,317.091858 
	C216.943146,304.766235 216.961792,292.440552 216.953354,280.114899 
	C216.948288,272.728302 216.242294,272.005035 209.065109,272.001648 
	C196.572891,271.995697 184.080643,272.015198 171.588470,271.993317 
	C165.498367,271.982666 164.756729,271.228271 164.728394,264.985565 
	C164.692856,257.157166 164.719238,249.328476 164.718964,240.999908 
z"/>
</svg>